# xmcd
#
# Track frame offsets:
#	150
#	12721
#	26170
#	36317
#	48737
#	63062
#	73804
#	84565
#	97320
#	108611
#	118753
#	134218
#	144164
#	154834
#	167787
#	178442
#	190289
#	199976
#	212806
#	223252
#	236214
#
# Disc length: 3317 seconds
#
# Revision: 1
# Processed by: cddbd v1.4PL0 Copyright (c) Steve Scherf et al.
# Submitted via: audiograbber 1.82.01
#
DISCID=5e0cf315
DTITLE=Dusan Barczi - Dame si este raz
DYEAR=2003
DGENRE=
TTITLE0=Kuzolnik Mario
TTITLE1=Dame si este raz
TTITLE2=Pedro spadol zo stromu
TTITLE3=Hotel King
TTITLE4=Titul
TTITLE5=Rusky
TTITLE6=Jazva v srdci
TTITLE7=Kusava deka
TTITLE8=Moja stara
TTITLE9=Majster Tang
TTITLE10=Policajt Lary
TTITLE11=Komare z Ugandy
TTITLE12=Mamut a Helmut
TTITLE13=Oto
TTITLE14=Maly jockey
TTITLE15=Cumkarty
TTITLE16=Je to vsecko na milu
TTITLE17=Beusacka
TTITLE18=Banjo, ja sa lucim
TTITLE19=Slovenske zenske
TTITLE20=Banjamin
EXTD=
EXTT0=
EXTT1=
EXTT2=
EXTT3=
EXTT4=
EXTT5=
EXTT6=
EXTT7=
EXTT8=
EXTT9=
EXTT10=
EXTT11=
EXTT12=
EXTT13=
EXTT14=
EXTT15=
EXTT16=
EXTT17=
EXTT18=
EXTT19=
EXTT20=
PLAYORDER=
